<?xml version="1.0" encoding="UTF-8"?>
<svg xmlns="http://www.w3.org/2000/svg" xmlns:xlink="http://www.w3.org/1999/xlink" viewBox="0 0 50 50" width="50px" height="50px">
<g id="surface27883324">
<path style=" stroke:none;fill-rule:nonzero;fill:rgb(43.137255%,45.882353%,48.627451%);fill-opacity:1;" d="M 43.957031 23.019531 L 26.980469 6.042969 C 26.457031 5.519531 25.730469 5.207031 25 5.207031 C 24.269531 5.207031 23.542969 5.519531 23.019531 6.042969 L 19.375 9.6875 L 23.644531 13.957031 C 24.0625 13.75 24.480469 13.644531 25 13.644531 C 26.769531 13.644531 28.125 15 28.125 16.769531 C 28.125 17.292969 28.019531 17.707031 27.8125 18.125 L 31.980469 22.292969 C 32.394531 22.082031 32.8125 21.980469 33.332031 21.980469 C 35.105469 21.980469 36.457031 23.332031 36.457031 25.105469 C 36.457031 26.875 35.105469 28.230469 33.332031 28.230469 C 31.5625 28.230469 30.207031 26.875 30.207031 25.105469 C 30.207031 24.582031 30.3125 24.167969 30.519531 23.75 L 26.355469 19.582031 C 26.25 19.582031 26.144531 19.6875 26.042969 19.6875 L 26.042969 30.519531 C 27.292969 30.9375 28.125 32.082031 28.125 33.4375 C 28.125 35.207031 26.769531 36.5625 25 36.5625 C 23.230469 36.5625 21.875 35.207031 21.875 33.4375 C 21.875 32.082031 22.707031 30.9375 23.957031 30.519531 L 23.957031 19.582031 C 22.707031 19.167969 21.875 18.019531 21.875 16.667969 C 21.875 16.144531 21.980469 15.730469 22.1875 15.3125 L 17.917969 11.042969 L 6.042969 23.019531 C 5.519531 23.542969 5.207031 24.269531 5.207031 25 C 5.207031 25.730469 5.519531 26.457031 6.042969 26.980469 L 23.019531 43.957031 C 23.542969 44.480469 24.269531 44.792969 25 44.792969 C 25.730469 44.792969 26.457031 44.480469 26.980469 43.957031 L 43.957031 26.980469 C 44.480469 26.457031 44.792969 25.730469 44.792969 25 C 44.792969 24.269531 44.480469 23.542969 43.957031 23.019531 Z M 43.957031 23.019531 "/>
</g>
</svg>
