<?xml version="1.0" encoding="UTF-8"?>
<svg xmlns="http://www.w3.org/2000/svg" xmlns:xlink="http://www.w3.org/1999/xlink" viewBox="0 0 50 50" width="50px" height="50px">
<g id="surface29089015">
<path style=" stroke:none;fill-rule:nonzero;fill:rgb(43.137255%,45.882353%,48.627451%);fill-opacity:1;" d="M 35.5 3 L 14.5 3 C 8.160156 3 3 8.160156 3 14.5 L 3 35.5 C 3 41.839844 8.160156 47 14.5 47 L 35.5 47 C 41.839844 47 47 41.839844 47 35.5 L 47 14.5 C 47 8.160156 41.839844 3 35.5 3 Z M 39.613281 39 C 39.613281 39 37.964844 36.191406 35.199219 36.191406 C 32.53125 36.191406 30.492188 39 25.125 39 C 15.148438 39 9.496094 31.601562 8.03125 29.300781 C 7.917969 29.117188 8.132812 28.917969 8.3125 29.035156 C 12.554688 31.699219 16.65625 33 19.5 33 C 23.65625 32.996094 26 31 26 31 C 22.171875 28.746094 13 18.25 11.046875 15.320312 C 10.910156 15.117188 11.152344 14.894531 11.339844 15.050781 C 19.285156 21.734375 23.816406 24.253906 23.816406 24.253906 C 22.132812 22.839844 17.125 16.25 15.042969 13.316406 C 14.902344 13.121094 15.160156 12.890625 15.339844 13.054688 C 21.039062 18.355469 31 26 31 26 C 31.628906 24.234375 32.023438 22.117188 31.996094 20.5 C 31.929688 16.230469 29.179688 11.972656 28.035156 10.308594 C 27.90625 10.121094 28.144531 9.910156 28.328125 10.042969 C 35.75 15.375 38 22.03125 38 25.875 C 38 28.636719 37 30.375 37 30.375 C 37 30.375 41.230469 34.992188 39.613281 39 Z M 39.613281 39 "/>
</g>
</svg>
